<svg width="512" height="512" viewBox="0 0 512 512" fill="none" xmlns="http://www.w3.org/2000/svg">
<rect width="512" height="512" rx="40" fill="#201F1F"/>
<path d="M252.536 185.636V326H236.087L159.6 215.793H158.229V326H141.232V185.636H157.681L234.442 296.118H235.813V185.636H252.536ZM359.449 220.727C358.626 213.782 355.291 208.391 349.442 204.553C343.594 200.714 336.42 198.795 327.922 198.795C321.708 198.795 316.27 199.801 311.61 201.811C306.995 203.821 303.385 206.586 300.781 210.104C298.222 213.622 296.943 217.62 296.943 222.098C296.943 225.845 297.834 229.066 299.616 231.762C301.444 234.412 303.774 236.628 306.607 238.41C309.44 240.146 312.409 241.585 315.516 242.728C318.623 243.824 321.479 244.715 324.084 245.401L338.339 249.239C341.995 250.198 346.061 251.523 350.539 253.214C355.062 254.904 359.38 257.212 363.492 260.136C367.65 263.015 371.077 266.716 373.773 271.239C376.469 275.762 377.817 281.314 377.817 287.893C377.817 295.478 375.829 302.332 371.854 308.455C367.924 314.577 362.167 319.443 354.583 323.053C347.043 326.663 337.882 328.467 327.099 328.467C317.047 328.467 308.343 326.845 300.987 323.601C293.676 320.357 287.919 315.834 283.715 310.031C279.557 304.228 277.204 297.489 276.656 289.812H294.201C294.658 295.113 296.44 299.499 299.547 302.972C302.7 306.398 306.675 308.957 311.473 310.648C316.316 312.293 321.525 313.115 327.099 313.115C333.587 313.115 339.413 312.064 344.576 309.962C349.739 307.815 353.829 304.845 356.844 301.053C359.86 297.214 361.368 292.737 361.368 287.619C361.368 282.959 360.065 279.166 357.461 276.242C354.857 273.318 351.43 270.942 347.181 269.114C342.931 267.287 338.339 265.687 333.405 264.317L316.133 259.382C305.167 256.229 296.486 251.729 290.089 245.88C283.692 240.032 280.494 232.379 280.494 222.92C280.494 215.062 282.619 208.208 286.868 202.359C291.163 196.465 296.92 191.896 304.139 188.652C311.404 185.362 319.514 183.717 328.47 183.717C337.517 183.717 345.558 185.339 352.595 188.583C359.631 191.782 365.206 196.168 369.318 201.743C373.476 207.317 375.669 213.645 375.897 220.727H359.449Z" fill="white"/>
</svg>
